inDegrees=no
num_controls=7
num_derivatives=13
num_iterations=60
num_multipliers=7
num_parameters=0
num_slacks=7
num_states=26
objective=0.341361
objective_accelerations=0.041866
objective_balance=0.003230
objective_effort=0.025255
objective_height=0.264606
objective_ligament=0.006404
solver_duration=885.056718
status=Solve_Succeeded
success=true
DataType=double
version=3
OpenSimVersion=4.5
endheader
time	/jointset/ground_pelvis/pelvis_tilt/value	/jointset/ground_pelvis/pelvis_tx/value	/jointset/ground_pelvis/pelvis_ty/value	/jointset/hip_l/hip_flexion_l/value	/jointset/hip_l/hip_adduction_l/value	/jointset/hip_l/hip_rotation_l/value	/jointset/back/lumbar_extension/value	/jointset/patellofemoral_l/patellar_flexion_l/value	/jointset/knee_l/knee_flexion_l/value	/jointset/knee_l/knee_adduction_l/value	/jointset/knee_l/knee_rotation_l/value	/jointset/ankle_l/ankle_angle_l/value	/jointset/subtalar_l/subtalar_angle_l/value	/jointset/ground_pelvis/pelvis_tilt/speed	/jointset/ground_pelvis/pelvis_tx/speed	/jointset/ground_pelvis/pelvis_ty/speed	/jointset/hip_l/hip_flexion_l/speed	/jointset/hip_l/hip_adduction_l/speed	/jointset/hip_l/hip_rotation_l/speed	/jointset/back/lumbar_extension/speed	/jointset/patellofemoral_l/patellar_flexion_l/speed	/jointset/knee_l/knee_flexion_l/speed	/jointset/knee_l/knee_adduction_l/speed	/jointset/knee_l/knee_rotation_l/speed	/jointset/ankle_l/ankle_angle_l/speed	/jointset/subtalar_l/subtalar_angle_l/speed	/forceset/tau_hip_flexion_l	/forceset/tau_hip_adduction_l	/forceset/tau_hip_rotation_l	/forceset/tau_knee_flexion_l	/forceset/tau_ankle_angle_l	/forceset/tau_subtalar_angle_l	/forceset/tau_lumbar_extension	lambda_cid13_p0	lambda_cid13_p1	lambda_cid13_p2	lambda_cid13_p3	lambda_cid13_p4	lambda_cid13_p5	lambda_cid14_p0	/jointset/ground_pelvis/pelvis_tilt/accel	/jointset/ground_pelvis/pelvis_tx/accel	/jointset/ground_pelvis/pelvis_ty/accel	/jointset/hip_l/hip_flexion_l/accel	/jointset/hip_l/hip_adduction_l/accel	/jointset/hip_l/hip_rotation_l/accel	/jointset/back/lumbar_extension/accel	/jointset/patellofemoral_l/patellar_flexion_l/accel	/jointset/knee_l/knee_flexion_l/accel	/jointset/knee_l/knee_adduction_l/accel	/jointset/knee_l/knee_rotation_l/accel	/jointset/ankle_l/ankle_angle_l/accel	/jointset/subtalar_l/subtalar_angle_l/accel	gamma_cid13_p0	gamma_cid13_p1	gamma_cid13_p2	gamma_cid13_p3	gamma_cid13_p4	gamma_cid13_p5	gamma_cid14_p0
0	0.05608514528571305	0.1039830162927456	0.9050521006543851	0.1266922784136757	-0.351110364395489	-0.2292038164932348	-0.2144969558742783	0.2051545070141875	0.2051545070141877	-0.1359680775551942	-0.1552349733419726	0.09024313228550125	0.09965383293650601	0	0	0	0	0	0	0	0	0	0	0	0	0	0.1078104107584471	-0.05416939144335088	0.0006994741198661455	-0.1749693269122662	0.05593440830885021	-0.04659018805485176	-0.05890114397530737	-9.799597901635718	20.13634679072941	-1.419715321413162	24.80469593076563	-404.8845660494457	-62.35252627400096	-25.79085091968262	-5.136946626239816	-3.459524183770643	-1.882229887175834	24.75180194651799	-0.6334919684362601	7.068022997302265	-7.278613571921297	24.66252400730612	24.66252400730602	4.90697064363849	-2.050310033059727	7.094687418729011	1.475636465722737	5.386236397276655e-08	2.261335865441227e-06	-8.497620071643659e-07	1.262819110459025e-07	1.10109545238775e-06	1.324820383158163e-06	2.774721640642882e-07
0.01	0.05584449418567226	0.1038139571361225	0.9049607940137496	0.1278911099295149	-0.3511405787983855	-0.2288436168438887	-0.2148679210914886	0.2063591122468064	0.2063591122468057	-0.1357278554609474	-0.155320203769832	0.09059161032979512	0.09972713493282265	-0.04796371621185823	-0.03346895616759348	-0.0182252257348392	0.2382362463356459	-0.006029420397961463	0.07166781072804924	-0.07334374120190712	0.2393803215909762	0.239380321590956	0.04761964618517872	-0.01679625883695515	0.06938556663030364	0.01458604713785481	0.1060972450097862	-0.06450333705931369	0.000664272803431001	-0.1778786087952814	0.05984970183128024	-0.03770040562849497	-0.05646728782789768	-7.973209479681	16.05439078941509	-0.8816293901653673	21.62936346493831	-406.3327986453768	-71.06013160550276	-25.79194494777335	-4.601136976553072	-3.239124803415525	-1.787033338705014	23.13001139336096	-0.5858772975824516	7.160551712630872	-7.234859058210437	23.34462200063393	23.34462200063124	4.626040618092229	-1.45700692647986	6.814040456034086	1.438681478609384	-4.611165039793405e-08	2.948200579680107e-06	-9.359978632442904e-07	3.065315578881968e-07	4.296346025010272e-07	1.514524612886087e-06	3.70483984745279e-07
0.02	0.05512919535193338	0.1033204997237911	0.9046883622313526	0.1314263989919634	-0.3512307294496823	-0.2277778607668471	-0.2159468446534952	0.2099112878484636	0.2099112878484637	-0.1350241211024245	-0.1555659414095544	0.09162465387456248	0.09994401592867637	-0.0949295467394853	-0.06487965114167409	-0.03622502835233128	0.4672915093222119	-0.01198724968017935	0.1411112855390829	-0.1415916689592115	0.4695140738075749	0.469514073807546	0.09270245285574311	-0.03210144237256896	0.1369131000947294	0.02871579990741032	0.1043840792611189	-0.07483728267527523	0.000629071486997066	-0.1807878906782912	0.0637649953537148	-0.02881062320213527	-0.05403343168050009	-6.025820253243424	11.97083704437624	-0.3656804098144576	18.43917588342486	-405.563286095305	-79.34399417811414	-25.79406241749061	-4.937369489393539	-3.047871945068103	-1.837145263706407	22.915605276702	-0.6191737452875468	6.62315581389915	-6.259450883000714	22.81321013243061	22.81321013243279	4.399602740715618	-1.752094972791466	6.723080785553388	1.384377592062861	-1.460856647686346e-07	3.635065293918987e-06	-1.022233719324215e-06	4.867812047304911e-07	-2.418262473856952e-07	1.704228842614011e-06	4.634958054262697e-07
0.03	0.05394745237368962	0.102521598752667	0.9042355874915627	0.1372117964650603	-0.3513790796925373	-0.2260324905930319	-0.217682555002618	0.215720676179005	0.2157206761790113	-0.1338805927475152	-0.1559602615075819	0.0933221034441485	0.1003006642532513	-0.1411951123771791	-0.09471271050330159	-0.05440105902583243	0.6884158170093085	-0.01761327609485458	0.2075709748255844	-0.2049291244530181	0.6908100770155911	0.6908100770156228	0.1355812992549017	-0.04643671988203465	0.2020429324927947	0.04253825358177627	0.09956078902733338	-0.07022900303867027	0.001310067821148545	-0.1775288802925861	0.06098757243168262	-0.0304156006947014	-0.05018151309471688	-6.884158769842542	12.7500292251359	-0.412069415404599	18.46099671616946	-403.6068463690148	-76.53168222961479	-25.79473759131473	-4.437558485353923	-2.92274996030413	-1.818553960418578	21.50500791876835	-0.5242711213491391	6.598893052857415	-6.27770142062712	21.55467504713451	21.55467504714224	4.169244915747424	-1.225623286868436	6.327926733263052	1.369390498414123	-1.507362369319419e-07	3.808860289606447e-06	-1.369585633792086e-06	5.480046092468242e-07	-3.606315987950166e-07	2.025594305066991e-06	5.230400402397573e-07
